<svg width="100" height="80" viewBox="0 0 100 80" fill="none" xmlns="http://www.w3.org/2000/svg">
<path d="M8.76988 62.3896C4.19975 62.2982 0.543655 58.5887 0.543655 54.0034V42.1515C0.543655 37.5814 4.19975 33.8568 8.76988 33.7882V62.3972V62.3896Z" fill="#ECECEC"/>
<path d="M99.4564 54.0188C99.4564 58.589 95.7546 62.3365 91.2073 62.3822V33.7732C95.747 33.8494 99.4564 37.574 99.4564 42.1365V54.0188Z" fill="#ECECEC"/>
<path d="M78.6851 23.4523H51.9879V18.5471C56.1924 17.6635 59.3763 13.8856 59.3763 9.3916C59.3763 4.20451 55.1718 0 50.0075 0C44.8433 0 40.6159 4.20451 40.6159 9.3916C40.6159 13.8856 43.7998 17.6635 48.0272 18.5471V23.4523H21.2996C16.5619 23.4523 12.7458 27.2989 12.7458 32.0061V71.4691C12.7458 76.1763 16.5695 80 21.2996 80H78.6851C83.4228 80 87.2388 76.1535 87.2388 71.4463V32.0061C87.2388 27.2684 83.3923 23.4523 78.6851 23.4523ZM29.5867 42.167C29.5639 38.5338 32.504 35.5708 36.1829 35.5708C39.8619 35.5708 42.7791 38.5338 42.7791 42.167C42.7791 45.8002 39.839 48.7632 36.1829 48.7632C32.5268 48.7632 29.5867 45.8231 29.5867 42.167ZM63.7788 64.7358C63.7788 65.7565 62.9562 66.5791 61.9127 66.64C61.7223 66.701 61.5243 66.739 61.311 66.739H38.6736C38.468 66.739 38.2776 66.6933 38.0948 66.64C37.0436 66.5943 36.2058 65.7641 36.2058 64.7358V60.6074C36.2058 59.5487 37.0893 58.688 38.1938 58.688C39.2982 58.688 40.1818 59.5411 40.1818 60.6074V62.7706H59.8257V60.5998C59.8257 59.5411 60.7092 58.6804 61.8137 58.6804C62.9181 58.6804 63.8017 59.5335 63.8017 60.5998V64.7282L63.7788 64.7358ZM63.8169 48.7632C60.1837 48.7632 57.2207 45.8231 57.2207 42.167C57.1979 38.5338 60.1608 35.5708 63.8169 35.5708C67.473 35.5708 70.436 38.5338 70.436 42.167C70.436 45.8002 67.473 48.7632 63.8169 48.7632Z" fill="#ECECEC"/>
</svg>
